<svg width="111" height="17" viewBox="0 0 111 17" fill="none" xmlns="http://www.w3.org/2000/svg">
<g clip-path="url(#clip0_204_1628)">
<path fill-rule="evenodd" clip-rule="evenodd" d="M48.4895 12.7426H49.8104V3.75099H48.4895V12.7426ZM50.0093 0.910374C50.0093 1.41881 49.6335 1.81672 49.1361 1.81672C48.6387 1.81672 48.2629 1.42434 48.2629 0.910374C48.2629 0.37983 48.6387 0.00402832 49.1361 0.00402832C49.6335 0.00955482 50.0093 0.385357 50.0093 0.910374Z" fill="#282828"/>
<path fill-rule="evenodd" clip-rule="evenodd" d="M59.9957 8.26063C59.9957 6.27662 58.6473 4.83973 56.7462 4.83973C54.8285 4.83973 53.48 6.27662 53.48 8.26063C53.48 10.2446 54.8285 11.665 56.7462 11.665C58.6473 11.6705 59.9957 10.2446 59.9957 8.26063ZM61.3276 3.75101V16.064H59.9957V10.8139C59.327 12.0794 58.1001 12.8145 56.4864 12.8145C53.9221 12.8145 52.1426 10.9189 52.1426 8.233C52.1426 5.54712 53.9221 3.68469 56.4643 3.68469C58.0725 3.68469 59.3215 4.41972 59.9847 5.70186V3.75101H61.3276Z" fill="#282828"/>
<path fill-rule="evenodd" clip-rule="evenodd" d="M72.4799 3.75098V12.7481H71.148V10.7144C70.5512 12.1126 69.3519 12.7868 67.7271 12.7979C65.6271 12.7979 64.356 11.466 64.356 9.28853V3.75098H65.6878V8.95141C65.6878 10.5596 66.6273 11.5157 68.1803 11.5157C70.0483 11.477 71.1425 10.112 71.1425 8.16112V3.75098H72.4799Z" fill="#282828"/>
<path fill-rule="evenodd" clip-rule="evenodd" d="M82.6542 8.6033V7.91802C82.4995 6.10533 81.2007 4.83976 79.4212 4.83976C77.5035 4.83976 76.155 6.27665 76.155 8.26066C76.155 10.2447 77.5035 11.665 79.4212 11.665C81.2007 11.6705 82.4995 10.416 82.6542 8.6033ZM83.9861 3.75104V12.7482H82.6487V10.8305C81.98 12.0795 80.7531 12.8145 79.1615 12.8145C76.5972 12.8145 74.8176 10.9189 74.8176 8.23303C74.8176 5.56373 76.5806 3.68472 79.1117 3.68472C80.7365 3.66814 81.9689 4.40317 82.6487 5.66874V3.75104H83.9861Z" fill="#282828"/>
<path fill-rule="evenodd" clip-rule="evenodd" d="M91.7013 12.7426H93.0221V3.75099H91.7013V12.7426ZM93.2266 0.910374C93.2266 1.41881 92.8508 1.81672 92.3534 1.81672C91.856 1.81672 91.4802 1.42434 91.4802 0.910374C91.4802 0.37983 91.856 0.00402832 92.3534 0.00402832C92.8508 0.00955482 93.2266 0.385357 93.2266 0.910374Z" fill="#282828"/>
<path fill-rule="evenodd" clip-rule="evenodd" d="M100.372 12.1292C99.72 12.5603 99.0237 12.7979 98.355 12.7979C96.9844 12.7979 96.0283 11.8419 96.0283 9.90759V0.0317383H97.3492V3.75107H100.024V5.0719H97.3492V9.68653C97.3492 10.9687 97.7802 11.5655 98.565 11.5655C99.0126 11.5655 99.4934 11.3942 99.9853 11.1068L100.372 12.1292Z" fill="#282828"/>
<path fill-rule="evenodd" clip-rule="evenodd" d="M87.0645 12.7261H88.3853V-0.00146484H87.0645V12.7261Z" fill="#282828"/>
<path fill-rule="evenodd" clip-rule="evenodd" d="M43.7146 12.7261H45.0354V-0.00146484H43.7146V12.7261Z" fill="#282828"/>
<path fill-rule="evenodd" clip-rule="evenodd" d="M110.53 3.82837V11.7644C110.53 14.4392 108.888 16.0861 106.208 16.0751C104.865 16.0419 103.445 15.4837 102.544 14.6161L102.948 13.649C103.76 14.395 104.932 14.8869 106.087 14.9422C108.032 14.9422 109.209 13.754 109.209 11.7534V10.112C108.618 11.3499 107.512 11.9965 105.932 12.0076C103.694 12.0076 102.34 10.6868 102.34 8.53142V3.82837H103.66V8.18877C103.66 9.78041 104.611 10.7365 106.208 10.7365C108.104 10.7033 109.209 9.41566 109.209 7.31006V3.82837H110.53Z" fill="#282828"/>
<path fill-rule="evenodd" clip-rule="evenodd" d="M1.88454 1.83484C1.87348 1.84589 1.86796 1.85142 1.8569 1.86247C0.878713 2.85724 0.281851 4.09518 0.0828975 5.37733C0.0276325 5.70339 0 6.02945 0 6.36657V6.40525C0 6.72026 0.0276325 7.0408 0.0718445 7.35581C0.215533 8.334 0.591335 9.28456 1.1882 10.1191C1.38162 10.3954 1.60821 10.6607 1.8569 10.9149C1.86796 10.9259 1.87348 10.9315 1.88454 10.9425C2.42061 11.4786 3.01747 11.8931 3.65302 12.186C5.99072 13.2692 8.83687 12.7718 10.9646 10.9591C10.9701 10.9536 10.9756 10.948 10.9812 10.948C13.3852 8.89218 15.5903 7.02975 17.9666 7.02975C20.3375 7.02975 22.5481 8.89218 24.9466 10.948C25.5987 11.5062 26.3172 11.9428 27.0743 12.2412C28.058 12.6391 29.097 12.8105 30.1194 12.7386C31.5508 12.6391 32.9324 12.0589 34.0488 10.9425C34.0598 10.9315 34.0653 10.9259 34.0764 10.9149C34.3251 10.6662 34.5461 10.4009 34.7451 10.1191C35.342 9.27903 35.7178 8.32847 35.8614 7.35581C35.9609 6.70368 35.9554 6.03498 35.8559 5.38285C35.657 4.09518 35.0601 2.86277 34.0819 1.868C34.0709 1.85695 34.0653 1.85142 34.0543 1.84037C32.9435 0.729542 31.5618 0.14926 30.1249 0.0497826C29.1025 -0.0165354 28.058 0.154786 27.0688 0.552694C26.3172 0.851125 25.5932 1.28772 24.9466 1.84037C22.5315 3.88517 20.3486 5.75865 17.9666 5.75865C15.5847 5.75865 13.3852 3.87964 10.9756 1.83484C10.9701 1.82931 10.9646 1.82379 10.9646 1.82379C9.58295 0.657697 7.89737 0.0332031 6.24494 0.0332031C5.34965 0.0332031 4.46541 0.215578 3.64749 0.596906C3.01747 0.88981 2.41508 1.29877 1.88454 1.83484Z" fill="url(#paint0_radial_204_1628)"/>
</g>
<defs>
<radialGradient id="paint0_radial_204_1628" cx="0" cy="0" r="1" gradientUnits="userSpaceOnUse" gradientTransform="translate(-2.39892 6.39063) scale(41.1286 22.3335)">
<stop stop-color="#1CE5C3"/>
<stop offset="0.1025" stop-color="#1CE5C3"/>
<stop offset="0.4747" stop-color="#5440D7"/>
<stop offset="0.6308" stop-color="#8B2CE4"/>
<stop offset="0.7957" stop-color="#D421EB"/>
<stop offset="1" stop-color="#AC39FD"/>
</radialGradient>
<clipPath id="clip0_204_1628">
<rect width="110.53" height="16.06" fill="white"/>
</clipPath>
</defs>
</svg>
